<svg width="156" height="156" viewBox="0 0 156 156" fill="none" xmlns="http://www.w3.org/2000/svg">
<g id="upload-progress-svg">
<path id="upload-svg-wrapper" d="M156 78C156 121.078 121.078 156 78 156C34.9218 156 0 121.078 0 78C0 34.9218 34.9218 0 78 0C121.078 0 156 34.9218 156 78ZM7.8 78C7.8 116.77 39.2296 148.2 78 148.2C116.77 148.2 148.2 116.77 148.2 78C148.2 39.2296 116.77 7.8 78 7.8C39.2296 7.8 7.8 39.2296 7.8 78Z" fill="#90ADC6"/>
<path id="upload-svg-inner-wrapper" d="M148 78C148 116.66 116.66 148 78 148C39.3401 148 8 116.66 8 78C8 39.3401 39.3401 8 78 8C116.66 8 148 39.3401 148 78ZM18.5 78C18.5 110.861 45.1391 137.5 78 137.5C110.861 137.5 137.5 110.861 137.5 78C137.5 45.1391 110.861 18.5 78 18.5C45.1391 18.5 18.5 45.1391 18.5 78Z" fill="#333652"/>
<path id="upload-progress-ring" d="M141 77.5C141 112.018 113.018 140 78.5 140C43.9822 140 16 112.018 16 77.5C16 42.9822 43.9822 15 78.5 15C113.018 15 141 42.9822 141 77.5ZM23.5 77.5C23.5 107.876 48.1243 132.5 78.5 132.5C108.876 132.5 133.5 107.876 133.5 77.5C133.5 47.1243 108.876 22.5 78.5 22.5C48.1243 22.5 23.5 47.1243 23.5 77.5Z" fill="#F7E439"/>
<path id="upload-svg-pending-icon" d="M77 64C73.7006 64.0103 70.5137 65.2003 68.015 67.355C66.1 69.005 64.7125 71.155 64.355 73.3125C60.165 74.2375 57 77.8875 57 82.295C57 87.415 61.27 91.5 66.4525 91.5H88.7175C93.255 91.5 97 87.925 97 83.4325C97 79.3425 93.895 76.01 89.915 75.4475C89.3075 68.9975 83.725 64 77 64ZM82.885 76.865C83.0012 76.9812 83.0934 77.1192 83.1563 77.271C83.2192 77.4229 83.2516 77.5856 83.2516 77.75C83.2516 77.9144 83.2192 78.0771 83.1563 78.229C83.0934 78.3808 83.0012 78.5188 82.885 78.635C82.7688 78.7512 82.6308 78.8434 82.479 78.9063C82.3271 78.9692 82.1644 79.0016 82 79.0016C81.8356 79.0016 81.6729 78.9692 81.521 78.9063C81.3692 78.8434 81.2312 78.7512 81.115 78.635L78.25 75.7675V85.25C78.25 85.5815 78.1183 85.8995 77.8839 86.1339C77.6495 86.3683 77.3315 86.5 77 86.5C76.6685 86.5 76.3505 86.3683 76.1161 86.1339C75.8817 85.8995 75.75 85.5815 75.75 85.25V75.7675L72.885 78.635C72.6503 78.8697 72.3319 79.0016 72 79.0016C71.6681 79.0016 71.3497 78.8697 71.115 78.635C70.8803 78.4003 70.7484 78.0819 70.7484 77.75C70.7484 77.4181 70.8803 77.0997 71.115 76.865L76.115 71.865C76.2311 71.7486 76.3691 71.6562 76.5209 71.5932C76.6728 71.5302 76.8356 71.4978 77 71.4978C77.1644 71.4978 77.3272 71.5302 77.4791 71.5932C77.6309 71.6562 77.7689 71.7486 77.885 71.865L82.885 76.865Z" fill="#5E8FBA"/>
<path id="upload-svg-success-icon" d="M77 64C73.7006 64.0103 70.5137 65.2003 68.015 67.355C66.1 69.005 64.7125 71.155 64.355 73.3125C60.165 74.2375 57 77.8875 57 82.295C57 87.415 61.27 91.5 66.4525 91.5H88.7175C93.255 91.5 97 87.925 97 83.4325C97 79.3425 93.895 76.01 89.915 75.4475C89.3075 68.9975 83.725 64 77 64ZM82.885 76.135L75.385 83.635C75.2689 83.7514 75.1309 83.8438 74.9791 83.9068C74.8272 83.9698 74.6644 84.0022 74.5 84.0022C74.3356 84.0022 74.1728 83.9698 74.0209 83.9068C73.8691 83.8438 73.7311 83.7514 73.615 83.635L69.865 79.885C69.7488 79.7688 69.6566 79.6308 69.5937 79.479C69.5308 79.3271 69.4984 79.1644 69.4984 79C69.4984 78.8356 69.5308 78.6729 69.5937 78.521C69.6566 78.3692 69.7488 78.2312 69.865 78.115C69.9812 77.9988 70.1192 77.9066 70.271 77.8437C70.4229 77.7808 70.5856 77.7484 70.75 77.7484C70.9144 77.7484 71.0771 77.7808 71.229 77.8437C71.3808 77.9066 71.5188 77.9988 71.635 78.115L74.5 80.9825L81.115 74.365C81.3497 74.1303 81.6681 73.9984 82 73.9984C82.3319 73.9984 82.6503 74.1303 82.885 74.365C83.1197 74.5997 83.2516 74.9181 83.2516 75.25C83.2516 75.5819 83.1197 75.9003 82.885 76.135V76.135Z" fill="#F8F8F8"/>
<g id="upload-svg-progress-percentage">
<path id="upload-svg-percentage-progress" d="M74.0967 76.582V78.5332C74.0967 79.582 74.0029 80.4668 73.8154 81.1875C73.6279 81.9082 73.3584 82.4883 73.0068 82.9277C72.6553 83.3672 72.2305 83.6865 71.7324 83.8857C71.2402 84.0791 70.6836 84.1758 70.0625 84.1758C69.5703 84.1758 69.1162 84.1143 68.7002 83.9912C68.2842 83.8682 67.9092 83.6719 67.5752 83.4023C67.2471 83.127 66.9658 82.7695 66.7314 82.3301C66.4971 81.8906 66.3184 81.3574 66.1953 80.7305C66.0723 80.1035 66.0107 79.3711 66.0107 78.5332V76.582C66.0107 75.5332 66.1045 74.6543 66.292 73.9453C66.4854 73.2363 66.7578 72.668 67.1094 72.2402C67.4609 71.8066 67.8828 71.4961 68.375 71.3086C68.873 71.1211 69.4297 71.0273 70.0449 71.0273C70.543 71.0273 71 71.0889 71.416 71.2119C71.8379 71.3291 72.2129 71.5195 72.541 71.7832C72.8691 72.041 73.1475 72.3867 73.376 72.8203C73.6104 73.248 73.7891 73.7725 73.9121 74.3936C74.0352 75.0146 74.0967 75.7441 74.0967 76.582ZM72.4619 78.7969V76.3096C72.4619 75.7354 72.4268 75.2314 72.3564 74.7979C72.292 74.3584 72.1953 73.9834 72.0664 73.6729C71.9375 73.3623 71.7734 73.1104 71.5742 72.917C71.3809 72.7236 71.1553 72.583 70.8975 72.4951C70.6455 72.4014 70.3613 72.3545 70.0449 72.3545C69.6582 72.3545 69.3154 72.4277 69.0166 72.5742C68.7178 72.7148 68.4658 72.9404 68.2607 73.251C68.0615 73.5615 67.9092 73.9688 67.8037 74.4727C67.6982 74.9766 67.6455 75.5889 67.6455 76.3096V78.7969C67.6455 79.3711 67.6777 79.8779 67.7422 80.3174C67.8125 80.7568 67.915 81.1377 68.0498 81.46C68.1846 81.7764 68.3486 82.0371 68.542 82.2422C68.7354 82.4473 68.958 82.5996 69.21 82.6992C69.4678 82.793 69.752 82.8398 70.0625 82.8398C70.4609 82.8398 70.8096 82.7637 71.1084 82.6113C71.4072 82.459 71.6562 82.2217 71.8555 81.8994C72.0605 81.5713 72.2129 81.1523 72.3125 80.6426C72.4121 80.127 72.4619 79.5117 72.4619 78.7969Z" fill="black"/>
<path id="upload-svg-percentage-progress-sign" d="M76.9229 74.3408V73.6641C76.9229 73.1777 77.0283 72.7354 77.2393 72.3369C77.4502 71.9385 77.752 71.6191 78.1445 71.3789C78.5371 71.1387 79.0029 71.0186 79.542 71.0186C80.0928 71.0186 80.5615 71.1387 80.9482 71.3789C81.3408 71.6191 81.6426 71.9385 81.8535 72.3369C82.0645 72.7354 82.1699 73.1777 82.1699 73.6641V74.3408C82.1699 74.8154 82.0645 75.252 81.8535 75.6504C81.6484 76.0488 81.3496 76.3682 80.957 76.6084C80.5703 76.8486 80.1045 76.9688 79.5596 76.9688C79.0146 76.9688 78.543 76.8486 78.1445 76.6084C77.752 76.3682 77.4502 76.0488 77.2393 75.6504C77.0283 75.252 76.9229 74.8154 76.9229 74.3408ZM78.1445 73.6641V74.3408C78.1445 74.6104 78.1943 74.8652 78.2939 75.1055C78.3994 75.3457 78.5576 75.542 78.7686 75.6943C78.9795 75.8408 79.2432 75.9141 79.5596 75.9141C79.876 75.9141 80.1367 75.8408 80.3418 75.6943C80.5469 75.542 80.6992 75.3457 80.7988 75.1055C80.8984 74.8652 80.9482 74.6104 80.9482 74.3408V73.6641C80.9482 73.3887 80.8955 73.1309 80.79 72.8906C80.6904 72.6445 80.5352 72.4482 80.3242 72.3018C80.1191 72.1494 79.8584 72.0732 79.542 72.0732C79.2314 72.0732 78.9707 72.1494 78.7598 72.3018C78.5547 72.4482 78.3994 72.6445 78.2939 72.8906C78.1943 73.1309 78.1445 73.3887 78.1445 73.6641ZM83.1543 81.5479V80.8623C83.1543 80.3818 83.2598 79.9424 83.4707 79.5439C83.6816 79.1455 83.9834 78.8262 84.376 78.5859C84.7686 78.3457 85.2344 78.2256 85.7734 78.2256C86.3242 78.2256 86.793 78.3457 87.1797 78.5859C87.5723 78.8262 87.874 79.1455 88.085 79.5439C88.2959 79.9424 88.4014 80.3818 88.4014 80.8623V81.5479C88.4014 82.0283 88.2959 82.4678 88.085 82.8662C87.8799 83.2646 87.5811 83.584 87.1885 83.8242C86.8018 84.0645 86.3359 84.1846 85.791 84.1846C85.2461 84.1846 84.7773 84.0645 84.3848 83.8242C83.9922 83.584 83.6875 83.2646 83.4707 82.8662C83.2598 82.4678 83.1543 82.0283 83.1543 81.5479ZM84.376 80.8623V81.5479C84.376 81.8174 84.4258 82.0752 84.5254 82.3213C84.6309 82.5615 84.7891 82.7578 85 82.9102C85.2109 83.0566 85.4746 83.1299 85.791 83.1299C86.1074 83.1299 86.3682 83.0566 86.5732 82.9102C86.7842 82.7578 86.9395 82.5615 87.0391 82.3213C87.1387 82.0811 87.1885 81.8232 87.1885 81.5479V80.8623C87.1885 80.5869 87.1357 80.3291 87.0303 80.0889C86.9307 79.8486 86.7754 79.6553 86.5645 79.5088C86.3594 79.3564 86.0957 79.2803 85.7734 79.2803C85.4629 79.2803 85.2021 79.3564 84.9912 79.5088C84.7861 79.6553 84.6309 79.8486 84.5254 80.0889C84.4258 80.3291 84.376 80.5869 84.376 80.8623ZM86.1777 73.0225L79.9287 83.0244L79.0146 82.4443L85.2637 72.4424L86.1777 73.0225Z" fill="black"/>
</g>
</g>
</svg>
