<svg width="125" height="125" viewBox="0 0 125 125" fill="none" xmlns="http://www.w3.org/2000/svg">
<path d="M62.5 3.74892C62.5 1.67845 64.1801 -0.0117201 66.2468 0.112385C77.2912 0.775581 87.9863 4.36132 97.2231 10.5331C107.501 17.4007 115.512 27.1619 120.242 38.5823C124.973 50.0027 126.211 62.5693 123.799 74.6931C121.388 86.817 115.435 97.9534 106.694 106.694C97.9534 115.435 86.817 121.388 74.6931 123.799C62.5693 126.211 50.0027 124.973 38.5823 120.242C27.1619 115.512 17.4007 107.501 10.5331 97.2231C4.36132 87.9863 0.77558 77.2912 0.112385 66.2468C-0.0117202 64.1801 1.67845 62.5 3.74892 62.5V62.5C5.8194 62.5 7.48454 64.1805 7.62555 66.2462C8.27812 75.8064 11.4196 85.054 16.7674 93.0576C22.8111 102.103 31.4013 109.152 41.4516 113.315C51.5019 117.478 62.561 118.568 73.2304 116.445C83.8998 114.323 93.7002 109.085 101.392 101.392C109.085 93.7002 114.323 83.8998 116.445 73.2304C118.568 62.561 117.478 51.5019 113.315 41.4516C109.152 31.4013 102.103 22.8111 93.0576 16.7674C85.054 11.4196 75.8064 8.27812 66.2462 7.62555C64.1805 7.48454 62.5 5.8194 62.5 3.74892V3.74892Z" fill="#F7E439"/>
</svg>
